# xmcd
#
# Track frame offsets: 
#        150
#        10128
#        25826
#        36773
#        52040
#        69403
#        86932
#        103642
#        114187
#        129244
#        147264
#
# Disc length: 2153 seconds
#
# Revision: 0
# Processed by: cddbd v1.5.2PL0 Copyright (c) Steve Scherf et al.
# Submitted via: ExactAudioCopy v0.99pb4
#
DISCID=8c08670b
DTITLE=Rodney Hayden - 12 Ounce World
DYEAR=2008
DGENRE=Country
TTITLE0=12 Ounce World
TTITLE1=Something Stronger Than Me 
TTITLE2=Huntsville
TTITLE3=Waltz With Me 
TTITLE4=Darling I'm Falling For You 
TTITLE5=Lonesome, Heartbroke and Blue 
TTITLE6=Pour A Drink
TTITLE7=Last Plane Out Of Tulsa 
TTITLE8=I'm The One For You 
TTITLE9=That's How Long (My Love Will Last)
TTITLE10=Song For Momma 
EXTD=
EXTT0=
EXTT1=
EXTT2=
EXTT3=
EXTT4=
EXTT5=
EXTT6=
EXTT7=
EXTT8=
EXTT9=
EXTT10=
PLAYORDER=
